<svg xmlns="http://www.w3.org/2000/svg" width="212" height="33" fill="none"><path fill="#fff" d="m0 7.004 28-4-8.788 8v21h-7.938v-16.5L4 20.874 7.5 9.828 0 7.004Zm42.228 2.404c.84 0 1.68.126 2.562.336v6.846a13.172 13.172 0 0 0-2.73-.294c-3.36 0-5.292 1.806-5.292 5.292v10.416h-7.434V9.744h6.804l.252 2.268c1.386-1.722 3.486-2.604 5.838-2.604Zm21.311 2.352.294-2.016h6.258v22.26h-6.258l-.336-1.974c-1.848 1.554-4.2 2.436-6.846 2.436-6.636 0-11.046-4.998-11.046-11.592 0-6.888 4.662-11.592 11.046-11.592 2.688 0 5.082.924 6.888 2.478Zm-5.67 13.986c2.814 0 4.83-2.016 4.83-4.872s-2.016-4.872-4.83-4.872-4.83 2.016-4.83 4.872 2.016 4.872 4.83 4.872Zm33.67-13.986.294-2.016h6.258v22.26h-6.258l-.336-1.974c-1.848 1.554-4.2 2.436-6.846 2.436-6.636 0-11.046-4.998-11.046-11.592 0-6.888 4.662-11.592 11.046-11.592 2.688 0 5.082.924 6.888 2.478Zm-5.67 13.986c2.814 0 4.83-2.016 4.83-4.872s-2.016-4.872-4.83-4.872-4.83 2.016-4.83 4.872 2.016 4.872 4.83 4.872Zm30.005-8.778 2.394-7.224h7.77v.756l-8.61 21.504h-6.594L102.266 10.5v-.756h7.77l2.436 7.224 1.68 5.334 1.722-5.334Zm33.582 6.048h-16.338c.63 2.058 2.268 3.192 4.662 3.192 1.47 0 2.814-.546 3.612-1.302h7.644c-1.596 4.704-5.964 7.602-11.298 7.602-6.93 0-11.97-4.872-11.97-11.634 0-6.804 5.04-11.634 11.97-11.634 7.812 0 12.978 5.964 11.718 13.776Zm-16.338-4.284h9.408c-.588-1.974-2.226-3.234-4.704-3.234-2.394 0-4.032 1.218-4.704 3.234Zm26.965 13.272h-7.476v-29.4h7.476v29.4Zm11.957 0h-7.476v-29.4h7.476v29.4Zm8.177-24.108c-2.478 0-4.2-1.638-4.2-3.948S177.739 0 180.217 0c2.436 0 4.2 1.638 4.2 3.948s-1.764 3.948-4.2 3.948Zm3.738 24.108h-7.434V9.744h7.434v22.26Zm15.234.504c-7.098 0-12.222-4.872-12.222-11.634 0-6.804 5.124-11.634 12.222-11.634s12.222 4.83 12.222 11.634c0 6.762-5.124 11.634-12.222 11.634Zm0-6.762c2.772 0 4.788-2.016 4.788-4.872s-2.016-4.872-4.788-4.872c-2.73 0-4.788 2.016-4.788 4.872s2.058 4.872 4.788 4.872Z"/></svg>