<svg xmlns="http://www.w3.org/2000/svg" width="24" height="24" fill="none"><path fill="#202023" fill-rule="evenodd" d="M19.75 3H7.25C6.56 3 6 3.56 6 4.25v12.5c0 .69.56 1.25 1.25 1.25h12.5c.69 0 1.25-.56 1.25-1.25V4.25C21 3.56 20.44 3 19.75 3Zm-.25 1.5v5.44l-1.115-1.115a1.258 1.258 0 0 0-1.77 0L12.5 12.94l-1.365-1.365a1.258 1.258 0 0 0-1.77 0L7.5 13.44V4.5h12Zm-12 12v-.94l2.75-2.75 2.25 2.25 5-5 2 2v4.44h-12Zm-3 1.75V6H3v12.25A2.755 2.755 0 0 0 5.75 21H18v-1.5H5.75c-.69 0-1.25-.56-1.25-1.25ZM13 7.75C13 8.99 11.99 10 10.75 10S8.5 8.99 8.5 7.75 9.51 5.5 10.75 5.5 13 6.51 13 7.75Zm-1.5 0a.749.749 0 1 0-1.5 0 .749.749 0 1 0 1.5 0Z" clip-rule="evenodd"/></svg>