<svg xmlns="http://www.w3.org/2000/svg" width="24" height="24" fill="none"><path fill="#202023" fill-rule="evenodd" d="M17.665 2c-2.07 0-4.027.95-5.309 2.581L12 5.032l-.355-.451A6.755 6.755 0 0 0 6.335 2H5.5v1.5h.835c1.606 0 3.126.736 4.124 2H9.17a8.769 8.769 0 0 0-4.855 1.47l-.985.655.83 1.25.986-.656A7.269 7.269 0 0 1 9.17 7h.739l-1.18.97-.001.002A4.762 4.762 0 0 0 7 11.64v.86h1.5v-.86c0-.971.435-1.894 1.183-2.511l1.567-1.29V12.1c0 2.923.685 5.799 1.988 8.4H4V22h16v-1.5h-5.066a17.26 17.26 0 0 1-2.184-8.4V7.838l1.568 1.29A3.262 3.262 0 0 1 15.5 11.64v.86H17v-.86a4.762 4.762 0 0 0-1.727-3.668L14.093 7h.737a7.27 7.27 0 0 1 4.025 1.22l.985.655.83-1.25-.984-.655A8.769 8.769 0 0 0 14.83 5.5h-1.288a5.254 5.254 0 0 1 4.123-2h.835V2h-.835Z" clip-rule="evenodd"/></svg>